<?xml version="1.0" encoding="UTF-8"?>
<!DOCTYPE svg PUBLIC "-//W3C//DTD SVG 1.1//EN" "http://www.w3.org/Graphics/SVG/1.1/DTD/svg11.dtd">
<!-- Creator: CorelDRAW -->
<svg xmlns="http://www.w3.org/2000/svg" xml:space="preserve" width="1000px" height="1000px" style="shape-rendering:geometricPrecision; text-rendering:geometricPrecision; image-rendering:optimizeQuality; fill-rule:evenodd; clip-rule:evenodd"
viewBox="0 0 1000 1000"
 xmlns:xlink="http://www.w3.org/1999/xlink">
 <defs>
  <style type="text/css">
   <![CDATA[
    .fil0 {fill:black;fill-rule:nonzero}
   ]]>
  </style>
 </defs>
 <g id="Layer_x0020_1">
  <metadata id="CorelCorpID_0Corel-Layer"/>
  <path class="fil0" d="M591.52 158.478c69.0355,119.574 28.0642,272.465 -91.5095,341.498 0,0 0,0 -0.011811,0 138.069,0 250.001,-111.92 250.001,-249.988 0,-138.063 -111.932,-249.99 -250.001,-249.99 -45.5363,0 -88.1942,12.2421 -124.976,33.5197 86.3127,0.0862205 170.238,44.837 216.497,124.96z"/>
  <path class="fil0" d="M500.011 499.931c0.011811,0 0.011811,0 0.011811,0l0 0.022441 0 0c69.0343,-119.556 28.0748,-272.453 -91.4989,-341.488 -119.562,-69.0272 -272.464,-28.0571 -341.497,91.5107 -22.7634,39.4394 -33.4902,82.5024 -33.4559,124.988 43.2296,-74.7012 123.944,-125.006 216.464,-125.01 138.056,0.00472441 249.976,111.926 249.988,249.977 -69.0343,-119.562 -221.925,-160.533 -341.498,-91.4989 -119.561,69.0331 -160.532,221.925 -91.4977,341.498 22.7729,39.4441 54.7028,70.2615 91.5202,91.4646 -43.0819,-74.7827 -46.2827,-169.849 -0.034252,-249.955 69.0331,-119.573 221.938,-160.545 341.498,-91.5095z"/>
  <path class="fil0" d="M499.976 500.024c0.034252,138.032 111.944,249.93 249.989,249.93 0.011811,0 0.022441,0 0.034252,0 -0.022441,-45.5705 -12.2764,-88.2284 -33.5693,-125.01 -86.2902,-0.114567 -170.159,-44.85 -216.419,-124.919 0,0 0,0 -0.011811,0 0,0 -0.0106299,0 -0.022441,0z"/>
  <path class="fil0" d="M499.919 500.024c-138.021,0.0448819 -249.907,111.954 -249.907,249.988 0,138.069 111.932,249.99 249.988,249.99 92.5654,0 173.314,-50.3457 216.533,-125.104 -42.5079,0.0448819 -85.6005,-10.6701 -125.056,-33.4559 -119.539,-69.0225 -160.51,-221.869 -91.5568,-341.418z"/>
  <path class="fil0" d="M749.999 749.953c0,0.0129921 0,0.034252 0,0.0578741 0,45.5032 -12.2197,88.1257 -33.4677,124.886 86.2902,-0.103937 170.182,-44.8607 216.442,-124.967 22.774,-39.4441 33.489,-82.5154 33.4548,-124.988 -43.2189,74.6894 -123.932,124.988 -216.429,125.01z"/>
  <path class="fil0" d="M499.976 499.976c0,-0.0106299 0,-0.022441 0,-0.022441 0,0 0,0 0,-0.011811 -0.022441,0.034252 -0.034252,0.0578741 -0.0578741,0.0814961 0.0236221,0 0.046063,0 0.0578741,0 0,-0.0236221 0,-0.034252 0,-0.0472441z"/>
  <path class="fil0" d="M500.08 500.024c-0.034252,-0.0236221 -0.0578741,-0.0236221 -0.0921261,-0.0472441 -0.011811,0 -0.011811,0 -0.011811,0 0.011811,0.0129921 0.022441,0.0236221 0.034252,0.0472441 0.0236221,0 0.046063,0 0.0696851,0z"/>
  <path class="fil0" d="M932.974 249.977c-22.774,-39.4441 -54.704,-70.2615 -91.5213,-91.4705 43.0926,74.7886 46.2945,169.843 0.034252,249.966 -46.2945,80.1804 -130.3,124.949 -216.682,124.96 37.9748,21.9366 69.6308,53.5571 91.6253,91.5107 42.4949,0.0448819 85.5887,-10.6819 125.046,-33.4677 119.561,-69.0331 160.531,-221.932 91.4977,-341.498z"/>
 </g>
</svg>
